OpenSim_Sub02_CSBaseline_RCS.mot
version=1
nRows=80
nColumns=11
inDegrees=no
endheader
time	Top_Thigh	Med_Thigh	Bot_Thigh	Top_Shank	2nd_Top_Shank	2nd_Bot_Shank	Bot_Shank	BNOx	BNOy	BNOZ
17.64000000	12827.56232791	13515.75527008	13714.07960977	1120.09578441	1220.42653191	1006.16083188	1002.14938129	47.16619048	-64.54777373	119.19702821
17.65000000	12840.55238913	13555.59181327	13712.23686216	1120.03302321	1220.07455104	1004.34909477	1002.87546726	48.10228036	-64.04940440	118.07070296
17.66000000	12850.17247909	13590.86849079	13710.44889661	1119.78626658	1219.68058672	1002.67418014	1003.39595511	49.22125810	-63.46383048	116.62985695
17.67000000	12855.65502281	13619.58491149	13710.13023899	1119.34416385	1219.23536018	1001.17303451	1003.66846521	50.53248162	-62.78657889	114.86321899
17.68000000	12856.94599476	13641.01151006	13711.84085953	1118.72314154	1218.74266924	999.83835396	1003.70930990	52.01975854	-62.02635700	112.80287938
17.69000000	12854.91829540	13656.06956890	13715.03063047	1117.93975722	1218.20637341	998.66262585	1003.53507838	53.66677597	-61.19193436	110.48113299
17.70000000	12850.50677323	13665.79069932	13719.07523432	1117.01056842	1217.63033220	997.63833753	1003.16235984	55.45722099	-60.29208051	107.93027465
17.71000000	12844.64627672	13671.20651267	13723.35035362	1115.95213270	1217.01840511	996.75797636	1002.60774347	57.37478072	-59.33556501	105.18259921
17.72000000	12838.27165436	13673.34862027	13727.23167088	1114.78100760	1216.37445165	996.01402971	1001.88781847	59.40314225	-58.33115739	102.27040152
17.73000000	12832.31775464	13673.24863344	13730.09486863	1113.51375069	1215.70233133	995.39898492	1001.01917403	61.52599267	-57.28762721	99.22597643
17.74000000	12827.71942605	13671.93816352	13731.31562938	1112.16691951	1215.00590365	994.90532936	1000.01839934	63.72701909	-56.21374401	96.08161879
17.75000000	12825.39737285	13670.43723148	13730.28494501	1110.75707162	1214.28902812	994.52555038	998.90208360	65.98990860	-55.11827734	92.86962343
17.76000000	12825.72244287	13669.31528293	13726.98895855	1109.30076455	1213.55556425	994.25213535	997.68681599	68.29834830	-54.00999674	89.62228521
17.77000000	12828.35120097	13668.55645024	13722.18693539	1107.81455587	1212.80937154	994.07757161	996.38918571	70.63602530	-52.89767176	86.37189898
17.78000000	12832.89247528	13668.10574826	13716.68981000	1106.31500312	1212.05430951	993.99434653	995.02578195	72.98662668	-51.79007194	83.15075959
17.79000000	12838.95509392	13667.90819186	13711.30851687	1104.81866386	1211.29423765	993.99494747	993.61319391	75.33383956	-50.69596684	79.99116187
17.80000000	12846.14788503	13667.90879593	13706.85399047	1103.34209563	1210.53301547	994.07186177	992.16801078	77.66135102	-49.62412599	76.92540068
17.81000000	12854.07967673	13668.05257531	13704.13716526	1101.90185599	1209.77450248	994.21757681	990.70682175	79.95284816	-48.58331896	73.98577086
17.82000000	12862.35929715	13668.28454489	13703.96897573	1100.51450248	1209.02255819	994.42457994	989.24621601	82.19201809	-47.58231527	71.20456727
17.83000000	12870.59557442	13668.54971953	13707.16035634	1099.19659266	1208.28104211	994.68535851	987.80278276	84.36254790	-46.62988448	68.61408475
17.84000000	12878.39733666	13668.79311411	13714.52224157	1097.96468409	1207.55381373	994.99239989	986.39311118	86.44812469	-45.73479613	66.24661814
17.85000000	12885.37341200	13668.95974348	13726.86556590	1096.83533429	1206.84473257	995.33819143	985.03379048	88.43243557	-44.90581978	64.13446230
17.86000000	12891.13775960	13668.99612134	13744.97695638	1095.82510084	1206.15765813	995.71522049	983.74140984	90.29916762	-44.15172496	62.30991206
17.87000000	12895.50380693	13668.90702760	13768.69808937	1094.95054128	1205.49644993	996.11597442	982.53255846	92.03200794	-43.48128122	60.80526229
17.88000000	12898.54409794	13668.77293208	13796.64311687	1094.22821316	1204.86496745	996.53294059	981.42382553	93.61464364	-42.90325811	59.65280782
17.89000000	12900.34849376	13668.67936309	13827.34415333	1093.67467403	1204.26707023	996.95860635	980.43180025	95.03076182	-42.42642518	58.88484351
17.90000000	12901.00685550	13668.71184895	13859.33331323	1093.30648145	1203.70661775	997.38545907	979.57307180	96.26404956	-42.05955197	58.53366419
17.91000000	12900.60904430	13668.95591796	13891.14271101	1093.14019295	1203.18746953	997.80598609	978.86422937	97.29819398	-41.81140803	58.63156472
17.92000000	12899.24492127	13669.49709844	13921.30446116	1093.19236611	1202.71348507	998.21267478	978.32186217	98.11688217	-41.69076291	59.21083995
17.93000000	12897.00762547	13670.41937039	13948.37032244	1093.47955845	1202.28852388	998.59801249	977.96255938	98.70380122	-41.70638615	60.30378472
17.94000000	12894.11772553	13671.74652419	13971.65572622	1094.01832754	1201.91644547	998.95448658	977.80291020	99.04263824	-41.86704729	61.94269388
17.95000000	12890.96132564	13673.42416167	13991.46814155	1094.82523093	1201.60110934	999.27458441	977.85950382	99.11708033	-42.18151589	64.15986227
17.96000000	12887.93559299	13675.39265922	14008.18133703	1095.91682616	1201.34637500	999.55079334	978.14892943	98.91081458	-42.65856148	66.98758475
17.97000000	12885.43769476	13677.59239321	14022.16908127	1097.30967079	1201.15610196	999.77560073	978.68777623	98.40752809	-43.30695363	70.45815616
17.98000000	12883.86479816	13679.96374002	14033.80514287	1099.02032237	1201.03414972	999.94149392	979.49263340	97.59090796	-44.13546186	74.60387135
17.99000000	12883.61407038	13682.44707603	14043.46329045	1101.06211260	1200.98479841	1000.04148547	980.57815442	96.44557746	-45.15286001	79.42965366
18	12885.08267861	13684.98277762	14051.51729260	1103.37417870	1201.02200222	1000.08066708	981.91447112	94.97769179	-46.36802013	84.31088191
18.01000000	12888.66779005	13687.51122116	14058.34091793	1105.82146340	1201.16938945	1000.07620964	983.42719372	93.21493808	-47.78991251	87.99339039
18.02000000	12894.75393472	13689.97203286	14064.30636454	1108.26568358	1201.45100900	1000.04580921	985.03999668	91.18593962	-49.42751172	89.19564186
18.03000000	12903.23437321	13692.27567555	14069.72477666	1110.56855612	1201.89090979	1000.00716185	986.67655450	88.91931971	-51.28979235	86.63609913
18.04000000	12913.36418967	13694.29472788	14074.82798749	1112.60539153	1202.50827389	999.97631760	988.26589121	86.44214126	-53.38097645	79.20629504
18.05000000	12924.35581783	13695.89923661	14079.84252968	1114.35196557	1203.28631446	999.95716135	989.77656740	83.76993497	-55.67016223	67.07685849
18.06000000	12935.42169147	13696.95924849	14084.99493592	1115.82908285	1204.19212331	999.94812551	991.19486407	80.91306276	-58.11070528	50.99171300
18.07000000	12945.77424432	13697.34481030	14090.51173889	1117.05776040	1205.19271619	999.94761678	992.50714582	77.88186216	-60.65588690	31.69748631
18.08000000	12954.62591013	13696.92596879	14096.61947126	1118.05901523	1206.25510886	999.95404187	993.69977722	74.68667070	-63.25898841	9.94080616
18.09000000	12961.18912266	13695.57277074	14103.54466570	1118.85386434	1207.34631708	999.96580747	994.75912287	71.33782594	-65.87329114	-13.53169969
18.10000000	12964.68240331	13693.15727264	14111.50979802	1119.46332475	1208.43335660	999.98132028	995.67154734	67.84566539	-68.45207639	-37.97340352
18.11000000	12964.79527772	13689.70702465	14120.42346132	1119.90841347	1209.48324318	999.99898701	996.42341523	64.22052660	-70.94862548	-62.63767758
18.12000000	12962.01565636	13685.51314950	14129.66219581	1120.21014752	1210.46299257	1000.01721436	997.00109111	60.47274711	-73.31621974	-86.77789413
18.13000000	12956.90878551	13680.89230097	14138.55100423	1120.38954390	1211.33962053	1000.03440902	997.39093958	56.61266445	-75.50814048	-109.64742542
18.14000000	12950.03991142	13676.16113282	14146.41488933	1120.46761964	1212.08014281	1000.04897770	997.57932523	52.65061616	-77.47766902	-130.49964372
18.15000000	12941.97428037	13671.63629880	14152.57885384	1120.46539174	1212.65157518	1000.05932709	997.55261262	48.59693977	-79.17808667	-148.58792128
18.16000000	12933.27713862	13667.63445269	14156.36790051	1120.40387722	1213.02093338	1000.06386391	997.29716637	44.46197283	-80.56267475	-163.16563036
18.17000000	12924.51373244	13664.47224825	14157.10703208	1120.30409308	1213.15523318	1000.06099484	996.79935103	40.25605286	-81.58471459	-173.48614322
18.18000000	12916.24930810	13662.46633925	14154.12125129	1120.18705635	1213.02149032	1000.04912659	996.04553122	35.98951741	-82.19748749	-178.80283212
18.19000000	12909.04911185	13661.93337945	14146.73556087	1120.07378404	1212.58672057	1000.02666587	995.02207150	31.67270402	-82.35427477	-178.36906932
18.20000000	12903.47838997	13663.19002261	14134.27496358	1119.98531815	1211.81858100	999.99210967	993.71593940	27.31621770	-82.00878485	-171.44472684
18.21000000	12900.10238872	13666.55292250	14116.06446216	1119.94800092	1210.82068782	999.96310099	992.24192381	22.98737125	-81.20527036	-158.66763003
18.22000000	12899.48635437	13672.33873289	14091.42905934	1120	1210	1000	991	18.88000000	-80.19000000	-143.75000000
18.23000000	12902.18055370	13680.84569628	14059.69623936	1120.16781628	1209.71157061	1000.15271940	990.33777779	15.16916829	-79.19268894	-130.14089625
18.24000000	12907.57628599	13690.94756915	14020.38548083	1120.42488321	1209.93865194	1000.40626230	990.23905485	11.88637930	-78.26750169	-118.57278818
18.25000000	12913.10032010	13699.10350529	13973.34170613	1120.73136737	1210.57154608	1000.72940441	990.59667583	9.02724589	-77.42471506	-109.09899769
18.26000000	12915.98913005	13701.53876732	13918.44136185	1121.04743535	1211.50055512	1001.09092145	991.30348537	6.58738093	-76.67460590	-101.77284665
18.27000000	12913.47918992	13694.47861781	13855.56089458	1121.33325374	1212.61598116	1001.45958914	992.25232811	4.56239730	-76.02745104	-96.64765697
18.28000000	12902.80697373	13674.14831939	13784.57675089	1121.54898912	1213.80812628	1001.80418319	993.33604869	2.94790786	-75.49352732	-93.77675053
18.29000000	12881.23912906	13636.81514025	13705.37931046	1121.65480809	1214.96729259	1002.09347931	994.44749176	1.73952550	-75.08311156	-93.21344921
18.30000000	12848.37683977	13581.99633863	13618.93695968	1121.61087722	1215.98378217	1002.29625322	995.47950194	0.93286307	-74.80648061	-95.01107490
18.31000000	12807.77849083	13514.71813138	13528.04538121	1121.37736311	1216.74789711	1002.38128063	996.32492390	0.52353345	-74.67391129	-99.22294950
18.32000000	12763.38578263	13440.54036226	13435.67725930	1120.91443235	1217.14993952	1002.31733726	996.87660226	0.50714951	-74.69568045	-105.90239488
18.33000000	12719.14041556	13365.02287502	13344.80527821	1120.18225151	1217.08021148	1002.07319883	997.02738166	0.87932412	-74.88206491	-115.10273294
18.34000000	12678.98409002	13293.72551342	13258.40212219	1119.15409592	1216.45344345	1001.62864587	996.69175872	1.62722493	-75.23834661	-126.71491161
18.35000000	12646.85850640	13232.20812121	13179.44047548	1117.90012247	1215.36490685	1001.04479146	995.94425156	2.67560407	-75.73289203	-139.42983381
18.36000000	12626.70536510	13186.03054213	13110.89302233	1116.53391071	1213.99079204	1000.41920216	994.93110041	3.92123886	-76.31752205	-151.40053872
18.37000000	12622.37810843	13160.63659668	13055.68092240	1115.16924500	1212.50767110	999.84961647	993.79888383	5.26077468	-76.94397950	-160.77752845
18.38000000	12634.29914571	13156.95970039	13014.72231651	1113.91990969	1211.09211611	999.43377291	992.69418039	6.59085688	-77.56400721	-165.71130510
18.39000000	12658.43385302	13170.07409327	12986.33335321	1112.89968915	1209.92069913	999.26940997	991.76356864	7.80813084	-78.12934800	-164.35237076
18.40000000	12690.44973542	13194.66243678	12968.65628551	1112.22236774	1209.16999225	999.45426618	991.15362713	8.80924191	-78.59174471	-154.85122753
18.41000000	12726.01429797	13225.40739237	12959.83336643	1112.00169156	1209.01651206	1000.08604247	991.01088873	9.49087091	-78.90295420	-135.35917706
18.42000000	12760.79504573	13256.99162149	12958.00684898	1112.30063964	1209.56316412	1001.21260077	991.42126008	9.79674587	-79.03336485	-105.08852875
18.43000000	12790.45948375	13284.09778559	12961.31898619	1113.03134351	1210.69412876	1002.73371309	992.29050525	9.81038912	-79.00872602	-66.40423224
